<svg version="1.2" xmlns="http://www.w3.org/2000/svg" viewBox="0 0 24 25" width="24" height="25">
	<title>klubysportowe-logo-svg</title>
	<style>
		.s0 { fill: #222222 } 
		.s1 { fill: #e73f0c } 
		.s2 { fill: #ffffff } 
	</style>
	<path id="Layer" fill-rule="evenodd" class="s0" d="m102.8 10.6q0 0.3-0.1 0.7l-0.3 1.4h-3.7l-0.2 1.1c0 0.1 0 0.2 0 0.3 0 0.5 0.3 0.8 0.9 0.8 0.7 0 1-0.3 1.1-0.9l0.1-0.3h1.6l-0.1 0.4c-0.3 1.4-1.2 2.2-2.8 2.2-1.4 0-2.5-0.7-2.5-2.1 0-0.4 0.1-0.7 0.1-0.8l0.6-2.6c0.3-1.5 1.2-2.3 2.8-2.3 1.3 0 2.5 0.6 2.5 2.1zm-1.8 0.9l0.1-0.5q0 0 0-0.1 0.1 0 0.1 0 0-0.1 0-0.1 0-0.1 0-0.1c0-0.6-0.4-0.9-1-0.9q-0.8 0-1 1l-0.2 0.7zm-12.2-2.9h1.6l-0.2 5.6 2.1-5.6h1.7l-0.3 5.6 2.2-5.6h1.5l-3 7.6h-1.9l0.2-5.1-2 5.1h-2.1zm-6.9 5.6c0-0.3 0.1-0.6 0.1-0.8l0.6-2.6c0.3-1.5 1.2-2.4 2.7-2.4 1.4 0 2.5 0.7 2.5 2.1q0 0.5-0.1 0.8l-0.5 2.6c-0.4 1.5-1.3 2.4-2.8 2.4-1.6 0-2.5-0.8-2.5-2.1zm3.6-0.3l0.6-2.9c0-0.1 0-0.2 0-0.3q0-0.8-0.8-0.8-0.9-0.1-1.1 0.9l-0.6 2.9q0 0.1 0 0.3c0 0.5 0.3 0.8 0.8 0.8q0.9 0.1 1.1-0.9zm-5.6 0c0 0.2 0 0.3 0 0.4q0 0.5 0.8 0.5 0.2 0 0.4 0l-0.3 1.4q-0.3 0.1-0.7 0.1c-1.2 0-2-0.5-2-1.6q0-0.1 0-0.2 0.1-0.1 0.1-0.2 0 0 0-0.1 0-0.1 0-0.2l0.9-4.1h-1l0.3-1.3h1l0.6-2.1h1.5l-0.5 2.1h1.4l-0.3 1.3h-1.4zm-1.8-5.3l-0.3 1.5c-0.2 0-0.4-0.1-0.7-0.1q-1.3 0-1.7 1.6l-1 4.5h-1.6l1.6-7.5h1.4l-0.2 1.2q0.6-1.4 1.8-1.4 0.5 0 0.7 0.2zm-11.1 5.5c0-0.3 0.1-0.6 0.1-0.7l0.6-2.7c0.3-1.5 1.3-2.3 2.8-2.3 1.3 0 2.4 0.7 2.4 2.1q0 0.4-0.1 0.8l-0.5 2.6c-0.3 1.5-1.3 2.4-2.8 2.4-1.5 0-2.5-0.8-2.5-2.2zm3.6-0.2l0.6-2.9c0.1-0.1 0.1-0.2 0.1-0.3q0-0.9-0.9-0.9-0.9 0-1 1l-0.7 2.9q0 0.1 0 0.3c0 0.5 0.3 0.8 0.9 0.8q0.8 0 1-0.9zm-3.7-3.8q0 0.4-0.1 0.8l-0.6 3.2c-0.3 1.5-1.1 2.2-2.2 2.2-0.8 0-1.4-0.4-1.7-1.1l-0.7 3.2h-1.6l2.1-9.8h1.4l-0.2 0.9c0.5-0.7 1.1-1.1 1.9-1.1 1.1 0 1.7 0.6 1.7 1.7zm-1.7 0.5c0-0.5-0.2-0.8-0.8-0.8-0.5 0-1 0.4-1.2 1.2l-0.5 2.4q0 0.3 0 0.5c0 0.6 0.3 0.9 0.9 0.9 0.5 0 0.8-0.3 0.9-1l0.6-2.7q0.1-0.3 0.1-0.5zm-10.6 3.4q0-0.1 0-0.1 0-0.1 0-0.2 0-0.1 0.1-0.2 0-0.1 0-0.2v-0.3h1.7l-0.1 0.5c0 0.1-0.1 0.2-0.1 0.4 0 0.6 0.4 0.9 1.1 0.9 0.9 0 1.3-0.7 1.3-1.5 0-0.6-0.2-1-1.3-1.9-1-1-1.5-1.7-1.5-2.8 0-1.8 1-3.1 2.9-3.1 1.5 0 2.6 0.8 2.6 2.3q0 0.4-0.1 0.8h-1.6q0-0.4 0-0.7c0-0.6-0.4-0.9-0.9-0.9-0.8 0-1.2 0.7-1.2 1.4 0 0.6 0.1 1 1.2 1.9 1.1 1 1.5 1.8 1.5 2.8 0 1.8-1 3.2-3 3.2-1.4 0-2.6-0.7-2.6-2.3zm0.7-5.4l-3.8 8.4c-0.5 1.1-1.2 1.6-2.2 1.6-0.6 0-1-0.1-1.4-0.3l0.3-1.4c0.3 0.1 0.6 0.2 1 0.2 0.4 0 0.6-0.2 0.8-0.6l0.2-0.3-0.5-7.6h1.6l0.2 5.2 2.2-5.2zm-6.5 1.5q0 0.4-0.1 0.8l-0.7 3.2c-0.3 1.5-1 2.2-2.1 2.2-1 0-1.7-0.6-1.8-1.5l-0.6 1.3h-1.2l2.2-10.4h1.7l-0.7 3.4c0.4-0.4 0.9-0.7 1.5-0.7 1.2 0 1.8 0.6 1.8 1.7zm-1.7 0.5c0-0.5-0.3-0.8-0.9-0.8-0.5 0-0.9 0.4-1.1 1.3l-0.5 2.2q-0.1 0.3-0.1 0.6c0 0.6 0.4 0.9 1 0.9 0.5 0 0.8-0.3 0.9-1l0.6-2.7q0.1-0.3 0.1-0.5zm-4.3-2l-1.6 7.5h-1.5l0.2-0.9c-0.4 0.7-1 1.1-1.8 1.1-1.1 0-1.7-0.6-1.7-1.7q0-0.4 0.1-0.9l1.1-5.1h1.7l-1.1 5q-0.1 0.3-0.1 0.5c0 0.5 0.3 0.7 0.8 0.7 0.5 0 0.9-0.3 1.1-1.1l1.1-5.1zm-7.4-2.9h1.7l-2.2 10.4h-1.7zm-3.9 4l1 6.4h-1.7l-0.7-4.7-1.3 1.5-0.7 3.2h-1.6l2.2-10.4h1.7l-1 4.5 3.5-4.5h1.8z"/>
	<path id="Layer" fill-rule="evenodd" class="s1" d="m110.8 8.8h1.2l-1.6 7.4h-1.2zm-1.4 3.1q0 0.3-0.1 0.6l-0.5 2.3c-0.2 1-0.7 1.5-1.5 1.5-0.6 0-1-0.3-1.2-0.8l-0.5 2.3h-1.2l1.5-7h1.1l-0.2 0.7c0.3-0.5 0.8-0.8 1.3-0.8 0.8 0 1.3 0.4 1.3 1.2zm-1.2 0.4q0-0.6-0.6-0.6c-0.4 0-0.7 0.3-0.8 0.8l-0.4 1.8q0 0.1 0 0.3c0 0.4 0.2 0.7 0.6 0.7 0.4 0 0.6-0.3 0.7-0.8l0.4-1.9q0-0.2 0.1-0.3zm-5.2 2.6h1.2l-0.3 1.3h-1.2zm-100.1-14.9h21l-2.8 15.4c-0.3 2-1.7 3.5-4.1 5-2 1.2-4.6 2.4-7.9 3.9-2.8-1.5-5.1-2.7-6.6-3.9-1.8-1.5-2.7-3-2.4-5z"/>
	<path id="Layer" fill-rule="evenodd" class="s2" d="m4.4 14.7c-0.2 0.8 0.3 1.6 1.3 2.3 0.9 0.8 2.4 1.6 4.2 2.6 2.1-1 3.8-1.8 5.1-2.6 1.2-0.7 1.9-1.5 2.1-2.2l0.5-2.8h-3.3l-0.7-1 1.1-1.1h5.3l-0.4 2.1-0.4 2.7c-0.3 1.6-1.5 2.8-3.4 4-1.5 1-3.7 2-6.3 3.2-2.3-1.2-4.1-2.2-5.3-3.2-1.5-1.2-2.2-2.4-1.9-3.9 0-0.1 2.1-0.1 2.1-0.1zm17-12.6l-0.4 2.1-0.2 1.5h-2.1l0.3-1.5h-12.8l-1 5.7h1.3l-0.4 2.1h-3.3l0.3-2.1 1.1-5.7 0.3-2.1z"/>
	<path id="Layer" class="s2" d="m12.1 11l3.5 5.2h-2.4l-3.5-5.2 5.4-5.3h2.3zm-3.7-5.2h2.1l-1.9 10.5h-2z"/>
</svg>